<?xml version="1.0" encoding="iso-8859-1"?>
<!-- Generator: Adobe Illustrator 19.0.0, SVG Export Plug-In . SVG Version: 6.00 Build 0)  -->
<svg version="1.1" id="Layer_1" xmlns="http://www.w3.org/2000/svg" xmlns:xlink="http://www.w3.org/1999/xlink" x="0px" y="0px"
	 viewBox="0 0 512 512" style="enable-background:new 0 0 512 512;" xml:space="preserve">
<g>
	<g>
		<path d="M62.061,0v512h387.879V0H62.061z M403.394,465.455H108.606V46.545h294.788V465.455z"/>
	</g>
</g>
<g>
	<g>
		<path d="M294.788,224.97c-5.168,0-10.029,1.282-14.314,3.516c4.094-5.258,6.557-11.851,6.557-19.031
			c0-17.138-13.892-31.03-31.03-31.03s-31.03,13.892-31.03,31.03c0,7.18,2.462,13.773,6.557,19.031
			c-4.285-2.234-9.148-3.516-14.314-3.516c-17.138,0-31.03,13.892-31.03,31.03s13.892,31.03,31.03,31.03
			c5.658,0,10.947-1.539,15.515-4.184v50.73h46.545v-50.73c4.568,2.647,9.857,4.184,15.515,4.184c17.138,0,31.03-13.892,31.03-31.03
			C325.818,238.862,311.926,224.97,294.788,224.97z"/>
	</g>
</g>
<g>
</g>
<g>
</g>
<g>
</g>
<g>
</g>
<g>
</g>
<g>
</g>
<g>
</g>
<g>
</g>
<g>
</g>
<g>
</g>
<g>
</g>
<g>
</g>
<g>
</g>
<g>
</g>
<g>
</g>
</svg>
