<?xml version="1.0" encoding="iso-8859-1"?>
<!-- Generator: Adobe Illustrator 19.0.0, SVG Export Plug-In . SVG Version: 6.00 Build 0)  -->
<svg version="1.1" id="Layer_1" xmlns="http://www.w3.org/2000/svg" xmlns:xlink="http://www.w3.org/1999/xlink" x="0px" y="0px"
	 viewBox="0 0 512 512" style="enable-background:new 0 0 512 512;" xml:space="preserve">
<g>
	<g>
		<path d="M285.063,39.994c0.967-2.973,1.504-6.136,1.504-9.427C286.567,13.712,272.855,0,256,0s-30.567,13.712-30.567,30.567
			c0,3.291,0.536,6.454,1.504,9.427C109.973,54.367,19.105,154.318,19.105,275.104C19.105,405.729,125.376,512,256,512
			s236.896-106.271,236.896-236.896C492.896,154.318,402.027,54.367,285.063,39.994z M256,466.149
			c-105.342,0-191.045-85.703-191.045-191.045S150.658,84.06,256,84.06s191.045,85.703,191.045,191.045S361.342,466.149,256,466.149
			z"/>
	</g>
</g>
<g>
	<g>
		<path d="M364.07,167.034l-95.851,63.901c-15.391-4.231-32.571-0.323-44.642,11.748s-15.979,29.25-11.748,44.642l-63.901,95.851
			l95.851-63.901c15.391,4.23,32.571,0.322,44.642-11.748c12.071-12.071,15.979-29.25,11.748-44.642L364.07,167.034z"/>
	</g>
</g>
<g>
</g>
<g>
</g>
<g>
</g>
<g>
</g>
<g>
</g>
<g>
</g>
<g>
</g>
<g>
</g>
<g>
</g>
<g>
</g>
<g>
</g>
<g>
</g>
<g>
</g>
<g>
</g>
<g>
</g>
</svg>
