<?xml version="1.0" encoding="iso-8859-1"?>
<!-- Generator: Adobe Illustrator 19.0.0, SVG Export Plug-In . SVG Version: 6.00 Build 0)  -->
<svg version="1.1" id="Layer_1" xmlns="http://www.w3.org/2000/svg" xmlns:xlink="http://www.w3.org/1999/xlink" x="0px" y="0px"
	 viewBox="0 0 512 512" style="enable-background:new 0 0 512 512;" xml:space="preserve">
<g>
	<g>
		<path d="M191.099,447.099C191.099,482.885,220.212,512,256,512s64.901-29.115,64.901-64.901H191.099z"/>
	</g>
</g>
<g>
	<g>
		<path d="M450.704,374.986V237.972c0-99.221-74.605-181.339-170.665-193.22c3.03-4.565,4.806-10.029,4.806-15.907
			C284.845,12.94,271.905,0,256,0s-28.845,12.94-28.845,28.845c0,5.877,1.775,11.343,4.806,15.907
			c-96.06,11.881-170.665,93.999-170.665,193.22v137.014H25.239v43.268h461.521v-43.268H450.704z M407.437,374.986H104.563V237.972
			c0-83.502,67.934-151.437,151.437-151.437s151.437,67.934,151.437,151.437V374.986z"/>
	</g>
</g>
<g>
</g>
<g>
</g>
<g>
</g>
<g>
</g>
<g>
</g>
<g>
</g>
<g>
</g>
<g>
</g>
<g>
</g>
<g>
</g>
<g>
</g>
<g>
</g>
<g>
</g>
<g>
</g>
<g>
</g>
</svg>
