<?xml version="1.0" encoding="iso-8859-1"?>
<!-- Generator: Adobe Illustrator 19.0.0, SVG Export Plug-In . SVG Version: 6.00 Build 0)  -->
<svg version="1.1" id="Layer_1" xmlns="http://www.w3.org/2000/svg" xmlns:xlink="http://www.w3.org/1999/xlink" x="0px" y="0px"
	 viewBox="0 0 512 512" style="enable-background:new 0 0 512 512;" xml:space="preserve">
<g>
	<g>
		<path d="M412.903,66.065V0H0v437.677C0,478.659,33.341,512,74.323,512h363.355C478.659,512,512,478.659,512,437.677V66.065
			H412.903z M74.323,462.452c-13.66,0-24.774-11.114-24.774-24.774V49.548h313.806v388.129c0,8.684,1.511,17.02,4.261,24.774H74.323
			z M462.452,437.677c0,13.66-11.114,24.774-24.774,24.774c-13.661,0-24.774-11.114-24.774-24.774V115.613h49.548V437.677z"/>
	</g>
</g>
<g>
	<g>
		<rect x="99.097" y="99.097" width="214.71" height="99.097"/>
	</g>
</g>
<g>
	<g>
		<rect x="99.097" y="231.226" width="214.71" height="49.548"/>
	</g>
</g>
<g>
	<g>
		<rect x="99.097" y="313.806" width="214.71" height="49.548"/>
	</g>
</g>
<g>
</g>
<g>
</g>
<g>
</g>
<g>
</g>
<g>
</g>
<g>
</g>
<g>
</g>
<g>
</g>
<g>
</g>
<g>
</g>
<g>
</g>
<g>
</g>
<g>
</g>
<g>
</g>
<g>
</g>
</svg>
