<?xml version="1.0" encoding="iso-8859-1"?>
<!-- Generator: Adobe Illustrator 19.0.0, SVG Export Plug-In . SVG Version: 6.00 Build 0)  -->
<svg version="1.1" id="Layer_1" xmlns="http://www.w3.org/2000/svg" xmlns:xlink="http://www.w3.org/1999/xlink" x="0px" y="0px"
	 viewBox="0 0 512 512" style="enable-background:new 0 0 512 512;" xml:space="preserve">
<g>
	<g>
		<path d="M102.07,228.781c-15.008,0-27.219,12.21-27.219,27.219s12.21,27.219,27.219,27.219s27.219-12.21,27.219-27.219
			S117.078,228.781,102.07,228.781z"/>
	</g>
</g>
<g>
	<g>
		<path d="M437.149,181.149H204.14V85.884H0v340.233h204.14v-93.614l47.633,47.633l40.828-40.828l40.828,40.828l49.283-49.283
			h54.437L512,256L437.149,181.149z M420.238,290.022h-54.437l-32.372,32.372L292.6,281.566l-40.828,40.828L219.4,290.023h-56.088
			v95.265H40.828V126.71h122.484v95.265h256.926l34.023,34.023L420.238,290.022z"/>
	</g>
</g>
<g>
</g>
<g>
</g>
<g>
</g>
<g>
</g>
<g>
</g>
<g>
</g>
<g>
</g>
<g>
</g>
<g>
</g>
<g>
</g>
<g>
</g>
<g>
</g>
<g>
</g>
<g>
</g>
<g>
</g>
</svg>
