<?xml version="1.0" encoding="iso-8859-1"?>
<!-- Generator: Adobe Illustrator 19.0.0, SVG Export Plug-In . SVG Version: 6.00 Build 0)  -->
<svg version="1.1" id="Layer_1" xmlns="http://www.w3.org/2000/svg" xmlns:xlink="http://www.w3.org/1999/xlink" x="0px" y="0px"
	 viewBox="0 0 512 512" style="enable-background:new 0 0 512 512;" xml:space="preserve">
<g>
	<g>
		<path d="M256,0C114.84,0,0,114.842,0,256s114.84,256,256,256s256-114.842,256-256S397.16,0,256,0z M256,462.452
			c-113.837,0-206.452-92.614-206.452-206.452S142.163,49.548,256,49.548S462.452,142.163,462.452,256S369.837,462.452,256,462.452z
			"/>
	</g>
</g>
<g>
	<g>
		<path d="M256,231.226c-9.107,0-16.516-7.409-16.516-16.516s7.409-16.516,16.516-16.516s16.516,7.409,16.516,16.516h49.548
			c0-27.669-17.106-51.405-41.29-61.227v-46.128h-49.548v46.128c-24.185,9.822-41.29,33.557-41.29,61.227
			c0,36.428,29.637,66.065,66.065,66.065c9.107,0,16.516,7.409,16.516,16.516c0,9.107-7.409,16.516-16.516,16.516
			s-16.516-7.409-16.516-16.516h-49.548c0,27.669,17.106,51.405,41.29,61.227v46.128h49.548v-46.128
			c24.185-9.822,41.29-33.557,41.29-61.227C322.065,260.862,292.428,231.226,256,231.226z"/>
	</g>
</g>
<g>
</g>
<g>
</g>
<g>
</g>
<g>
</g>
<g>
</g>
<g>
</g>
<g>
</g>
<g>
</g>
<g>
</g>
<g>
</g>
<g>
</g>
<g>
</g>
<g>
</g>
<g>
</g>
<g>
</g>
</svg>
