<?xml version="1.0" encoding="iso-8859-1"?>
<!-- Generator: Adobe Illustrator 19.0.0, SVG Export Plug-In . SVG Version: 6.00 Build 0)  -->
<svg version="1.1" id="Layer_1" xmlns="http://www.w3.org/2000/svg" xmlns:xlink="http://www.w3.org/1999/xlink" x="0px" y="0px"
	 viewBox="0 0 512 512" style="enable-background:new 0 0 512 512;" xml:space="preserve">
<g>
	<g>
		<path d="M324.683,312.195v-74.927h-37.463v74.927h-62.439v-74.927h-37.463v74.927h-37.463v43.707
			c0,52.135,37.793,95.58,87.415,104.458V512h37.463v-51.64c49.622-8.876,87.415-52.321,87.415-104.458v-43.707H324.683z
			 M324.683,355.902c0,37.872-30.811,68.683-68.683,68.683s-68.683-30.811-68.683-68.683v-6.244h137.366V355.902z"/>
	</g>
</g>
<g>
	<g>
		<path d="M274.732,51.64V0h-37.463v51.64c-49.622,8.876-87.415,52.321-87.415,104.458v43.707h212.293v-43.707
			C362.146,103.962,324.353,60.517,274.732,51.64z M324.683,162.341H187.317v-6.244c0-37.872,30.811-68.683,68.683-68.683
			s68.683,30.811,68.683,68.683V162.341z"/>
	</g>
</g>
<g>
</g>
<g>
</g>
<g>
</g>
<g>
</g>
<g>
</g>
<g>
</g>
<g>
</g>
<g>
</g>
<g>
</g>
<g>
</g>
<g>
</g>
<g>
</g>
<g>
</g>
<g>
</g>
<g>
</g>
</svg>
