<?xml version="1.0" encoding="iso-8859-1"?>
<!-- Generator: Adobe Illustrator 19.0.0, SVG Export Plug-In . SVG Version: 6.00 Build 0)  -->
<svg version="1.1" id="Layer_1" xmlns="http://www.w3.org/2000/svg" xmlns:xlink="http://www.w3.org/1999/xlink" x="0px" y="0px"
	 viewBox="0 0 512 512" style="enable-background:new 0 0 512 512;" xml:space="preserve">
<g>
	<g>
		<path d="M256,0C114.842,0,0,114.842,0,256s114.842,256,256,256s256-114.842,256-256S397.158,0,256,0z M49.548,256
			c0-46.41,15.398-89.291,41.346-123.808c26.735,35.549,41.223,78.625,41.223,123.808c0,45.185-14.488,88.259-41.223,123.808
			C64.946,345.291,49.548,302.41,49.548,256z M231.226,460.96c-39.768-4.778-76.093-20.901-105.636-45.036
			c36.324-45.261,56.076-101.156,56.076-159.924c0-58.766-19.753-114.662-56.076-159.924
			c29.542-24.135,65.868-40.258,105.636-45.036V460.96z M280.774,460.96V51.04c39.766,4.778,76.088,20.898,105.629,45.031
			C350.078,141.333,330.323,197.232,330.323,256c0,58.769,19.755,114.667,56.081,159.929
			C356.862,440.061,320.54,456.182,280.774,460.96z M421.099,379.816c-26.738-35.551-41.228-78.628-41.228-123.816
			c0-45.186,14.49-88.264,41.228-123.816c25.953,34.52,41.353,77.403,41.353,123.816
			C462.452,302.414,447.052,345.296,421.099,379.816z"/>
	</g>
</g>
<g>
</g>
<g>
</g>
<g>
</g>
<g>
</g>
<g>
</g>
<g>
</g>
<g>
</g>
<g>
</g>
<g>
</g>
<g>
</g>
<g>
</g>
<g>
</g>
<g>
</g>
<g>
</g>
<g>
</g>
</svg>
