<?xml version="1.0" encoding="iso-8859-1"?>
<!-- Generator: Adobe Illustrator 19.0.0, SVG Export Plug-In . SVG Version: 6.00 Build 0)  -->
<svg version="1.1" id="Layer_1" xmlns="http://www.w3.org/2000/svg" xmlns:xlink="http://www.w3.org/1999/xlink" x="0px" y="0px"
	 viewBox="0 0 512 512" style="enable-background:new 0 0 512 512;" xml:space="preserve">
<g>
	<g>
		<path d="M431.94,80.639c-43.199,0-83.457-9.605-113.357-27.046C303.423,44.749,277.993,26.027,277.993,0h-43.985
			c0,26.027-25.432,44.749-40.591,53.593c-29.9,17.442-70.158,27.046-113.357,27.046H58.068v139.286
			c0,133.729,115.304,225.97,184.195,281.083L256,512l13.738-10.992c68.891-55.113,184.194-147.354,184.194-281.083V80.639H431.94z
			 M234.008,437.306c-70.939-60.358-131.955-128.213-131.955-217.381v-96.028c53.632-3.576,100.212-20.13,131.955-44.724V437.306z
			 M409.948,219.925c0,89.168-61.017,157.023-131.955,217.38V79.172c31.742,24.595,78.323,41.149,131.955,44.724V219.925z"/>
	</g>
</g>
<g>
</g>
<g>
</g>
<g>
</g>
<g>
</g>
<g>
</g>
<g>
</g>
<g>
</g>
<g>
</g>
<g>
</g>
<g>
</g>
<g>
</g>
<g>
</g>
<g>
</g>
<g>
</g>
<g>
</g>
</svg>
