<?xml version="1.0" encoding="iso-8859-1"?>
<!-- Generator: Adobe Illustrator 19.0.0, SVG Export Plug-In . SVG Version: 6.00 Build 0)  -->
<svg version="1.1" id="Layer_1" xmlns="http://www.w3.org/2000/svg" xmlns:xlink="http://www.w3.org/1999/xlink" x="0px" y="0px"
	 viewBox="0 0 512 512" style="enable-background:new 0 0 512 512;" xml:space="preserve">
<g>
	<g>
		<path d="M256,0C114.842,0,0,114.842,0,256s114.842,256,256,256s256-114.842,256-256S397.158,0,256,0z M256,462.452
			c-9.883,0-19.601-0.714-29.118-2.063l27.4-102.256l-47.86-12.825l-27.397,102.248c-52.022-20.98-93.6-62.558-114.581-114.581
			l102.248-27.397l-12.825-47.86l-102.256,27.4c-1.349-9.517-2.063-19.235-2.063-29.118c0-113.837,92.614-206.452,206.452-206.452
			c9.883,0,19.601,0.714,29.118,2.063l-27.4,102.256l47.86,12.825l27.397-102.248c52.022,20.98,93.6,62.558,114.581,114.581
			l-102.248,27.397l12.825,47.86l102.256-27.4c1.349,9.517,2.063,19.235,2.063,29.118C462.452,369.837,369.837,462.452,256,462.452z
			"/>
	</g>
</g>
<g>
	<g>
		<path d="M256,206.452c-27.321,0-49.548,22.227-49.548,49.548s22.227,49.548,49.548,49.548s49.548-22.227,49.548-49.548
			S283.321,206.452,256,206.452z"/>
	</g>
</g>
<g>
</g>
<g>
</g>
<g>
</g>
<g>
</g>
<g>
</g>
<g>
</g>
<g>
</g>
<g>
</g>
<g>
</g>
<g>
</g>
<g>
</g>
<g>
</g>
<g>
</g>
<g>
</g>
<g>
</g>
</svg>
