<?xml version="1.0" encoding="iso-8859-1"?>
<!-- Generator: Adobe Illustrator 19.0.0, SVG Export Plug-In . SVG Version: 6.00 Build 0)  -->
<svg version="1.1" id="Layer_1" xmlns="http://www.w3.org/2000/svg" xmlns:xlink="http://www.w3.org/1999/xlink" x="0px" y="0px"
	 viewBox="0 0 512.002 512.002" style="enable-background:new 0 0 512.002 512.002;" xml:space="preserve">
<g>
	<g>
		<path d="M511.987,256.001c0-0.268,0.016-0.533,0.014-0.802h-0.027c0-60.598-50.546-105.346-106.118-105.346h-31.403
			c-25.017,0-48.537,9.742-66.227,27.432l-59.983,59.983H106.145v37.464h104.633l-33.493,33.493
			c-10.615,10.613-24.726,16.459-39.737,16.459h-31.403c-40.586,0-68.673-33.926-68.673-68.684
			c0-36.424,30.168-68.684,68.673-68.684h31.403c15.011,0,29.123,5.846,39.737,16.459l26.491-26.491
			c-17.69-17.69-41.21-27.432-66.227-27.432h-31.403c-62.648,0-106.118,51.409-106.118,105.346H0
			c-0.003,0.268,0.014,0.534,0.014,0.802c0,0.267-0.015,0.533-0.014,0.802h0.027c0,58.307,48.465,105.346,106.118,105.346h31.403
			c25.017,0,48.538-9.742,66.227-27.432l59.983-59.983h142.097v-37.464H301.224l33.493-33.493
			c10.613-10.613,24.726-16.459,39.737-16.459h31.405c33.093,0,68.672,26.016,68.672,68.684c0,40.794-34.123,68.684-68.672,68.684
			h-31.406c-15.009,0-29.122-5.846-39.737-16.459l-26.491,26.491c17.69,17.69,41.209,27.432,66.227,27.432h31.405
			c60.982,0,106.118-50.16,106.118-105.346h0.027C512.003,256.534,511.987,256.268,511.987,256.001z"/>
	</g>
</g>
<g>
</g>
<g>
</g>
<g>
</g>
<g>
</g>
<g>
</g>
<g>
</g>
<g>
</g>
<g>
</g>
<g>
</g>
<g>
</g>
<g>
</g>
<g>
</g>
<g>
</g>
<g>
</g>
<g>
</g>
</svg>
