<?xml version="1.0" encoding="iso-8859-1"?>
<!-- Generator: Adobe Illustrator 19.0.0, SVG Export Plug-In . SVG Version: 6.00 Build 0)  -->
<svg version="1.1" id="Layer_1" xmlns="http://www.w3.org/2000/svg" xmlns:xlink="http://www.w3.org/1999/xlink" x="0px" y="0px"
	 viewBox="0 0 512 512" style="enable-background:new 0 0 512 512;" xml:space="preserve">
<g>
	<g>
		<path d="M256,0C114.84,0,0,114.842,0,256s114.84,256,256,256s256-114.842,256-256S397.16,0,256,0z M256,462.452
			c-113.837,0-206.452-92.614-206.452-206.452S142.163,49.548,256,49.548S462.452,142.163,462.452,256S369.837,462.452,256,462.452z
			"/>
	</g>
</g>
<g>
	<g>
		<polygon points="272.516,330.323 272.516,222.968 222.968,222.968 222.968,379.871 313.806,379.871 313.806,330.323 		"/>
	</g>
</g>
<g>
	<g>
		<path d="M247.742,123.871c-18.214,0-33.032,14.818-33.032,33.032s14.818,33.032,33.032,33.032s33.032-14.818,33.032-33.032
			S265.956,123.871,247.742,123.871z"/>
	</g>
</g>
<g>
</g>
<g>
</g>
<g>
</g>
<g>
</g>
<g>
</g>
<g>
</g>
<g>
</g>
<g>
</g>
<g>
</g>
<g>
</g>
<g>
</g>
<g>
</g>
<g>
</g>
<g>
</g>
<g>
</g>
</svg>
