<?xml version="1.0" encoding="iso-8859-1"?>
<!-- Generator: Adobe Illustrator 19.0.0, SVG Export Plug-In . SVG Version: 6.00 Build 0)  -->
<svg version="1.1" id="Layer_1" xmlns="http://www.w3.org/2000/svg" xmlns:xlink="http://www.w3.org/1999/xlink" x="0px" y="0px"
	 viewBox="0 0 512 512" style="enable-background:new 0 0 512 512;" xml:space="preserve">
<g>
	<g>
		<path d="M0,66.63v42.082h77.151v217.425c0,34.806,28.317,63.123,63.123,63.123h21.041h210.411h63.123v-42.082H140.274
			c-11.602,0-21.041-9.439-21.041-21.041v-21.041h316.04L512,105.605V66.63H0z M406.371,263.014H119.233V108.712h346.485
			L406.371,263.014z"/>
	</g>
</g>
<g>
	<g>
		<path d="M161.315,389.26c-15.469,0-28.055,12.585-28.055,28.055s12.585,28.055,28.055,28.055s28.055-12.585,28.055-28.055
			S176.784,389.26,161.315,389.26z"/>
	</g>
</g>
<g>
	<g>
		<path d="M371.726,389.26c-15.469,0-28.055,12.585-28.055,28.055s12.585,28.055,28.055,28.055
			c15.469,0,28.055-12.585,28.055-28.055S387.195,389.26,371.726,389.26z"/>
	</g>
</g>
<g>
</g>
<g>
</g>
<g>
</g>
<g>
</g>
<g>
</g>
<g>
</g>
<g>
</g>
<g>
</g>
<g>
</g>
<g>
</g>
<g>
</g>
<g>
</g>
<g>
</g>
<g>
</g>
<g>
</g>
</svg>
