<?xml version="1.0" encoding="iso-8859-1"?>
<!-- Generator: Adobe Illustrator 19.0.0, SVG Export Plug-In . SVG Version: 6.00 Build 0)  -->
<svg version="1.1" id="Layer_1" xmlns="http://www.w3.org/2000/svg" xmlns:xlink="http://www.w3.org/1999/xlink" x="0px" y="0px"
	 viewBox="0 0 512 512" style="enable-background:new 0 0 512 512;" xml:space="preserve">
<g>
	<g>
		<path d="M396.387,66.065V0H115.613v66.065H0V512h512V66.065H396.387z M462.452,462.452H49.548V115.613h115.613V49.548h181.677
			v66.065h115.613V462.452z"/>
	</g>
</g>
<g>
	<g>
		<path d="M256,148.645c-68.302,0-123.871,55.569-123.871,123.871S187.698,396.387,256,396.387s123.871-55.569,123.871-123.871
			S324.302,148.645,256,148.645z M256,346.839c-40.982,0-74.323-33.341-74.323-74.323c0-40.981,33.341-74.323,74.323-74.323
			c40.981,0,74.323,33.341,74.323,74.323C330.323,313.498,296.981,346.839,256,346.839z"/>
	</g>
</g>
<g>
</g>
<g>
</g>
<g>
</g>
<g>
</g>
<g>
</g>
<g>
</g>
<g>
</g>
<g>
</g>
<g>
</g>
<g>
</g>
<g>
</g>
<g>
</g>
<g>
</g>
<g>
</g>
<g>
</g>
</svg>
