<?xml version="1.0" encoding="iso-8859-1"?>
<!-- Generator: Adobe Illustrator 19.0.0, SVG Export Plug-In . SVG Version: 6.00 Build 0)  -->
<svg version="1.1" id="Layer_1" xmlns="http://www.w3.org/2000/svg" xmlns:xlink="http://www.w3.org/1999/xlink" x="0px" y="0px"
	 viewBox="0 0 512 512" style="enable-background:new 0 0 512 512;" xml:space="preserve">
<g>
	<g>
		<path d="M359.784,242.162v-83.027H152.216v83.027H69.189V449.73h373.622V242.162H359.784z M401.297,408.216H110.703V283.676
			h83.027v-83.027H318.27v83.027h83.027V408.216z"/>
	</g>
</g>
<g>
	<g>
		<path d="M256,290.595c-22.891,0-41.513,18.623-41.513,41.513c0,22.891,18.623,41.514,41.513,41.514s41.514-18.623,41.514-41.514
			C297.514,309.218,278.891,290.595,256,290.595z"/>
	</g>
</g>
<g>
	<g>
		<path d="M394.378,62.27H117.622C52.765,62.27,0,115.035,0,179.892v20.757h110.703v-20.757c0-34.336,27.934-62.27,62.27-62.27
			h166.054c34.336,0,62.27,27.934,62.27,62.27v20.757H512v-20.757C512,115.035,459.235,62.27,394.378,62.27z"/>
	</g>
</g>
<g>
</g>
<g>
</g>
<g>
</g>
<g>
</g>
<g>
</g>
<g>
</g>
<g>
</g>
<g>
</g>
<g>
</g>
<g>
</g>
<g>
</g>
<g>
</g>
<g>
</g>
<g>
</g>
<g>
</g>
</svg>
