<?xml version="1.0" encoding="iso-8859-1"?>
<!-- Generator: Adobe Illustrator 19.0.0, SVG Export Plug-In . SVG Version: 6.00 Build 0)  -->
<svg version="1.1" id="Layer_1" xmlns="http://www.w3.org/2000/svg" xmlns:xlink="http://www.w3.org/1999/xlink" x="0px" y="0px"
	 viewBox="0 0 512 512" style="enable-background:new 0 0 512 512;" xml:space="preserve">
<g>
	<g>
		<path d="M256,136c-66.168,0-120,53.832-120,120s53.832,120,120,120s120-53.832,120-120S322.168,136,256,136z M256,328
			c-39.702,0-72-32.299-72-72s32.298-72,72-72s72,32.299,72,72S295.702,328,256,328z"/>
	</g>
</g>
<g>
	<g>
		<path d="M470.659,232c-4.621-41.6-21.098-79.669-45.973-110.746l29.302-29.302L420.048,58.01l-29.302,29.302
			C359.667,62.438,321.598,45.96,280,41.341V0h-48v41.341c-41.598,4.621-79.669,21.098-110.746,45.973L91.952,58.01L58.011,91.95
			l29.302,29.302C62.438,152.331,45.962,190.4,41.341,232H0v48h41.341c4.621,41.6,21.098,79.669,45.973,110.746l-29.302,29.302
			l33.941,33.941l29.304-29.302c31.077,24.875,69.146,41.352,110.746,45.973V512h48v-41.341
			c41.598-4.621,79.667-21.098,110.746-45.973l29.302,29.302l33.941-33.941l-29.302-29.302
			c24.874-31.077,41.35-69.146,45.971-110.746H512v-48H470.659z M256,424c-92.635,0-168-75.365-168-168S163.365,88,256,88
			s168,75.365,168,168S348.637,424,256,424z"/>
	</g>
</g>
<g>
</g>
<g>
</g>
<g>
</g>
<g>
</g>
<g>
</g>
<g>
</g>
<g>
</g>
<g>
</g>
<g>
</g>
<g>
</g>
<g>
</g>
<g>
</g>
<g>
</g>
<g>
</g>
<g>
</g>
</svg>
