<?xml version="1.0" encoding="iso-8859-1"?>
<!-- Generator: Adobe Illustrator 19.0.0, SVG Export Plug-In . SVG Version: 6.00 Build 0)  -->
<svg version="1.1" id="Layer_1" xmlns="http://www.w3.org/2000/svg" xmlns:xlink="http://www.w3.org/1999/xlink" x="0px" y="0px"
	 viewBox="0 0 512 512" style="enable-background:new 0 0 512 512;" xml:space="preserve">
<g>
	<g>
		<path d="M256,0C152.207,0,67.765,84.442,67.765,188.235c0,66.345,34.278,126.752,90.353,160.824V512h195.765V349.059
			c56.073-34.072,90.353-94.479,90.353-160.824C444.235,84.442,359.793,0,256,0z M308.706,466.824H203.294v-45.176h105.412V466.824z
			 M321.012,315.705l-12.306,6.292v54.474H203.294v-54.474l-12.306-6.292c-48.142-24.609-78.047-73.452-78.047-127.47
			c0-78.883,64.176-143.059,143.059-143.059s143.059,64.176,143.059,143.059C399.059,242.253,369.154,291.096,321.012,315.705z"/>
	</g>
</g>
<g>
	<g>
		<polygon points="300.264,142.146 256,186.409 211.736,142.146 179.793,174.089 233.412,227.709 233.412,323.765 278.588,323.765 
			278.588,227.709 332.207,174.089 		"/>
	</g>
</g>
<g>
</g>
<g>
</g>
<g>
</g>
<g>
</g>
<g>
</g>
<g>
</g>
<g>
</g>
<g>
</g>
<g>
</g>
<g>
</g>
<g>
</g>
<g>
</g>
<g>
</g>
<g>
</g>
<g>
</g>
</svg>
