<?xml version="1.0" encoding="iso-8859-1"?>
<!-- Generator: Adobe Illustrator 19.0.0, SVG Export Plug-In . SVG Version: 6.00 Build 0)  -->
<svg version="1.1" id="Layer_1" xmlns="http://www.w3.org/2000/svg" xmlns:xlink="http://www.w3.org/1999/xlink" x="0px" y="0px"
	 viewBox="0 0 512 512" style="enable-background:new 0 0 512 512;" xml:space="preserve">
<g>
	<g>
		<path d="M256,0c-63.992,0-116.053,52.062-116.053,116.053c0,35.372,15.925,67.076,40.96,88.379v198.341
			c0,34.307,23.133,63.291,54.613,72.232V512h40.96v-36.995c31.481-8.939,54.613-37.925,54.613-72.232V204.433
			c25.035-21.303,40.96-53.008,40.96-88.379C372.053,52.062,319.992,0,256,0z M290.133,402.773
			c0,18.821-15.312,34.133-34.133,34.133s-34.133-15.312-34.133-34.133V226.977c10.797,3.329,22.258,5.13,34.133,5.13
			c11.876,0,23.336-1.801,34.133-5.13V402.773z M256,191.147c-26.302,0-49.474-13.604-62.89-34.133h125.781
			C305.474,177.542,282.302,191.147,256,191.147z M180.907,116.053c0-41.406,33.687-75.093,75.093-75.093
			s75.093,33.687,75.093,75.093H180.907z"/>
	</g>
</g>
<g>
</g>
<g>
</g>
<g>
</g>
<g>
</g>
<g>
</g>
<g>
</g>
<g>
</g>
<g>
</g>
<g>
</g>
<g>
</g>
<g>
</g>
<g>
</g>
<g>
</g>
<g>
</g>
<g>
</g>
</svg>
