<?xml version="1.0" encoding="iso-8859-1"?>
<!-- Generator: Adobe Illustrator 19.0.0, SVG Export Plug-In . SVG Version: 6.00 Build 0)  -->
<svg version="1.1" id="Layer_1" xmlns="http://www.w3.org/2000/svg" xmlns:xlink="http://www.w3.org/1999/xlink" x="0px" y="0px"
	 viewBox="0 0 512 512" style="enable-background:new 0 0 512 512;" xml:space="preserve">
<g>
	<g>
		<path d="M46.545,0v512h418.909V0H46.545z M418.909,465.455H93.091V46.545h325.818V465.455z"/>
	</g>
</g>
<g>
	<g>
		<path d="M256,193.939c-17.11,0-31.03,13.92-31.03,31.03S238.89,256,256,256s31.03-13.92,31.03-31.03S273.11,193.939,256,193.939z"
			/>
	</g>
</g>
<g>
	<g>
		<path d="M256,93.091c-72.718,0-131.879,59.161-131.879,131.879c0,32.295,11.688,61.899,31.03,84.852v93.572h46.545v-58.292
			c16.573,7.522,34.949,11.747,54.303,11.747c72.718,0,131.879-59.161,131.879-131.879S328.718,93.091,256,93.091z M256,310.303
			c-47.053,0-85.333-38.281-85.333-85.333s38.281-85.333,85.333-85.333s85.333,38.281,85.333,85.333S303.053,310.303,256,310.303z"
			/>
	</g>
</g>
<g>
</g>
<g>
</g>
<g>
</g>
<g>
</g>
<g>
</g>
<g>
</g>
<g>
</g>
<g>
</g>
<g>
</g>
<g>
</g>
<g>
</g>
<g>
</g>
<g>
</g>
<g>
</g>
<g>
</g>
</svg>
