<?xml version="1.0" encoding="iso-8859-1"?>
<!-- Generator: Adobe Illustrator 19.0.0, SVG Export Plug-In . SVG Version: 6.00 Build 0)  -->
<svg version="1.1" id="Layer_1" xmlns="http://www.w3.org/2000/svg" xmlns:xlink="http://www.w3.org/1999/xlink" x="0px" y="0px"
	 viewBox="0 0 512 512" style="enable-background:new 0 0 512 512;" xml:space="preserve">
<g>
	<g>
		<path d="M0,0v512h214.71V379.871h82.581V512H512V0H0z M462.452,462.452H346.839V330.323H165.161v132.129H49.548V240.827
			c10.123,4.436,21.291,6.915,33.032,6.915c22.483,0,42.901-9.034,57.806-23.661c14.906,14.627,35.323,23.661,57.806,23.661
			s42.901-9.034,57.806-23.661c14.906,14.627,35.323,23.661,57.806,23.661s42.901-9.034,57.806-23.661
			c14.906,14.627,35.323,23.661,57.806,23.661c11.741,0,22.909-2.479,33.032-6.915V462.452z M462.452,165.161
			c0,18.214-14.818,33.032-33.032,33.032s-33.032-14.818-33.032-33.032h-49.548c0,18.214-14.818,33.032-33.032,33.032
			s-33.032-14.818-33.032-33.032h-49.548c0,18.214-14.818,33.032-33.032,33.032s-33.032-14.818-33.032-33.032h-49.548
			c0,18.214-14.818,33.032-33.032,33.032s-33.032-14.818-33.032-33.032V49.548h412.903V165.161z"/>
	</g>
</g>
<g>
</g>
<g>
</g>
<g>
</g>
<g>
</g>
<g>
</g>
<g>
</g>
<g>
</g>
<g>
</g>
<g>
</g>
<g>
</g>
<g>
</g>
<g>
</g>
<g>
</g>
<g>
</g>
<g>
</g>
</svg>
