<?xml version="1.0" encoding="iso-8859-1"?>
<!-- Generator: Adobe Illustrator 19.0.0, SVG Export Plug-In . SVG Version: 6.00 Build 0)  -->
<svg version="1.1" id="Layer_1" xmlns="http://www.w3.org/2000/svg" xmlns:xlink="http://www.w3.org/1999/xlink" x="0px" y="0px"
	 viewBox="0 0 512 512" style="enable-background:new 0 0 512 512;" xml:space="preserve">
<g>
	<g>
		<path d="M124.541,0v512h262.919V0H124.541z M345.946,470.487H166.054V41.513h179.892V470.487z"/>
	</g>
</g>
<g>
	<g>
		<path d="M256,89.946c-22.891,0-41.513,18.623-41.513,41.514s18.623,41.513,41.513,41.513s41.514-18.623,41.514-41.513
			S278.891,89.946,256,89.946z"/>
	</g>
</g>
<g>
	<g>
		<path d="M256,214.487c-22.891,0-41.513,18.623-41.513,41.513s18.623,41.514,41.513,41.514s41.514-18.623,41.514-41.514
			S278.891,214.487,256,214.487z"/>
	</g>
</g>
<g>
	<g>
		<path d="M256,339.027c-22.891,0-41.513,18.623-41.513,41.513c0,22.891,18.623,41.514,41.513,41.514s41.514-18.623,41.514-41.514
			C297.514,357.65,278.891,339.027,256,339.027z"/>
	</g>
</g>
<g>
</g>
<g>
</g>
<g>
</g>
<g>
</g>
<g>
</g>
<g>
</g>
<g>
</g>
<g>
</g>
<g>
</g>
<g>
</g>
<g>
</g>
<g>
</g>
<g>
</g>
<g>
</g>
<g>
</g>
</svg>
