<?xml version="1.0" encoding="iso-8859-1"?>
<!-- Generator: Adobe Illustrator 19.0.0, SVG Export Plug-In . SVG Version: 6.00 Build 0)  -->
<svg version="1.1" id="Layer_1" xmlns="http://www.w3.org/2000/svg" xmlns:xlink="http://www.w3.org/1999/xlink" x="0px" y="0px"
	 viewBox="0 0 512 512" style="enable-background:new 0 0 512 512;" xml:space="preserve">
<g>
	<g>
		<path d="M473.545,205.969c-21.302-23.099-49.181-38.512-79.664-44.282c-8.71-26.095-24.843-49.509-46.387-66.993
			C321.728,73.785,289.236,62.27,256,62.27s-65.728,11.514-91.492,32.422c-21.544,17.484-37.679,40.898-46.387,66.993
			c-30.483,5.77-58.364,21.183-79.664,44.282C13.657,232.862,0,267.83,0,304.432C0,384.549,65.18,449.73,145.297,449.73h221.405
			C446.82,449.73,512,384.549,512,304.432C512,267.83,498.343,232.862,473.545,205.969z M366.703,408.216H145.297
			c-57.226,0-103.784-46.557-103.784-103.784c0-53.388,41.605-98.799,94.719-103.385l15.165-1.309l3.31-14.858
			c10.47-46.991,53.07-81.097,101.293-81.097c48.224,0,90.823,34.106,101.293,81.097l3.31,14.858l15.165,1.309
			c53.114,4.586,94.719,49.997,94.719,103.385C470.487,361.659,423.929,408.216,366.703,408.216z"/>
	</g>
</g>
<g>
	<g>
		<polygon points="276.757,256 276.757,193.73 235.243,193.73 235.243,256 172.973,256 172.973,297.514 235.243,297.514 
			235.243,359.784 276.757,359.784 276.757,297.514 339.027,297.514 339.027,256 		"/>
	</g>
</g>
<g>
</g>
<g>
</g>
<g>
</g>
<g>
</g>
<g>
</g>
<g>
</g>
<g>
</g>
<g>
</g>
<g>
</g>
<g>
</g>
<g>
</g>
<g>
</g>
<g>
</g>
<g>
</g>
<g>
</g>
</svg>
