<?xml version="1.0" encoding="iso-8859-1"?>
<!-- Generator: Adobe Illustrator 19.0.0, SVG Export Plug-In . SVG Version: 6.00 Build 0)  -->
<svg version="1.1" id="Layer_1" xmlns="http://www.w3.org/2000/svg" xmlns:xlink="http://www.w3.org/1999/xlink" x="0px" y="0px"
	 viewBox="0 0 512 512" style="enable-background:new 0 0 512 512;" xml:space="preserve">
<g>
	<g>
		<path d="M308.706,22.588c-97.912,0-203.294,25.918-203.294,82.823v91.934C38.136,210.854,0,237.265,0,271.059
			c0,37.587,45.981,61.651,105.412,73.66v61.869c0,56.906,105.382,82.824,203.294,82.824c97.911,0,203.291-25.918,203.294-82.822
			V105.412C512,48.506,406.618,22.588,308.706,22.588z M105.412,298.549c-5.983-1.388-11.732-2.9-17.172-4.552
			c-31.381-9.523-41.427-19.911-42.945-22.956c2.262-5.01,19.435-18.03,60.116-27.475V298.549z M193.652,82.474
			c31.255-9.486,72.114-14.709,115.054-14.709s83.799,5.224,115.054,14.709c31.324,9.505,41.389,19.872,42.936,22.938
			c-1.547,3.066-11.612,13.432-42.936,22.938c-31.255,9.486-72.114,14.709-115.054,14.709s-83.799-5.224-115.054-14.709
			c-31.324-9.505-41.389-19.872-42.936-22.938C152.263,102.346,162.328,91.979,193.652,82.474z M466.824,406.29
			c-0.977,2.616-10.601,13.386-43.064,23.237c-31.255,9.484-72.114,14.708-115.054,14.708s-83.799-5.224-115.054-14.709
			c-32.462-9.851-42.085-20.622-43.064-23.237v-54.938c17.376,1.694,35.159,2.531,52.706,2.531c31.92,0,62.81-2.65,90.565-7.71
			c4.387,2.498,9.446,3.945,14.846,3.945c16.607,0,30.118-13.511,30.118-30.118s-13.511-30.118-30.118-30.118
			c-9.821,0-18.533,4.747-24.034,12.042c-24.788,4.448-52.528,6.781-81.378,6.781c-18.132,0-35.882-0.943-52.706-2.732V160.03
			c39.788,19.15,100.254,28.205,158.118,28.205s118.329-9.055,158.118-28.205V406.29z"/>
	</g>
</g>
<g>
</g>
<g>
</g>
<g>
</g>
<g>
</g>
<g>
</g>
<g>
</g>
<g>
</g>
<g>
</g>
<g>
</g>
<g>
</g>
<g>
</g>
<g>
</g>
<g>
</g>
<g>
</g>
<g>
</g>
</svg>
