<?xml version="1.0" encoding="iso-8859-1"?>
<!-- Generator: Adobe Illustrator 19.0.0, SVG Export Plug-In . SVG Version: 6.00 Build 0)  -->
<svg version="1.1" id="Layer_1" xmlns="http://www.w3.org/2000/svg" xmlns:xlink="http://www.w3.org/1999/xlink" x="0px" y="0px"
	 viewBox="0 0 512.002 512.002" style="enable-background:new 0 0 512.002 512.002;" xml:space="preserve">
<g>
	<g>
		<path d="M455.76,0.028l-46.867,46.867l14.06,14.06l-57.286,57.286c-22.342-16.537-49.216-25.581-77.573-25.806
			c-0.362-0.003-0.722-0.004-1.086-0.004c-35.403,0-68.646,13.764-93.71,38.828c-4.723,4.723-9.116,9.835-13.059,15.194
			c-3.371,4.583-8.549,7.449-14.208,7.865c-41.895,3.083-81.547,20.933-111.649,50.262c-70.633,68.818-73.164,183.25-3.469,252.945
			c67.745,67.745,180.025,76.65,254.869,1.807c30.471-30.471,48.925-70.898,51.964-113.837c0.376-5.318,3.288-10.356,7.983-13.821
			c4.996-3.687,9.782-7.768,14.224-12.135c47.463-46.65,52.269-120.967,13.817-173.161l57.303-57.303l14.061,14.061l46.869-46.867
			L455.76,0.028z M352.076,291.177c-3.113,3.06-6.462,5.918-9.958,8.496c-14.078,10.388-22.841,26.064-24.042,43.014
			c-2.364,33.387-16.716,64.824-40.416,88.524c-51.976,51.976-140.662,56.164-198.239-1.413
			c-54.202-54.202-52.227-143.203,2.712-196.733c23.409-22.807,54.239-36.688,86.814-39.086
			c17.268-1.27,33.058-10.004,43.325-23.962c2.759-3.75,5.837-7.331,9.146-10.639c17.545-17.545,40.813-27.179,65.597-27.179
			c0.252,0,0.508,0.001,0.76,0.003c25.061,0.199,48.478,10.234,65.937,28.256C389.042,196.927,388.308,255.567,352.076,291.177z"/>
	</g>
</g>
<g>
	<g>
		
			<rect x="149.972" y="302.407" transform="matrix(0.7071 -0.7071 0.7071 0.7071 -192.2043 220.3271)" width="39.768" height="79.537"/>
	</g>
</g>
<g>
	<g>
		<circle cx="240.165" cy="271.86" r="39.769"/>
	</g>
</g>
<g>
</g>
<g>
</g>
<g>
</g>
<g>
</g>
<g>
</g>
<g>
</g>
<g>
</g>
<g>
</g>
<g>
</g>
<g>
</g>
<g>
</g>
<g>
</g>
<g>
</g>
<g>
</g>
<g>
</g>
</svg>
