<?xml version="1.0" encoding="iso-8859-1"?>
<!-- Generator: Adobe Illustrator 19.0.0, SVG Export Plug-In . SVG Version: 6.00 Build 0)  -->
<svg version="1.1" id="Layer_1" xmlns="http://www.w3.org/2000/svg" xmlns:xlink="http://www.w3.org/1999/xlink" x="0px" y="0px"
	 viewBox="0 0 512 512" style="enable-background:new 0 0 512 512;" xml:space="preserve">
<g>
	<g>
		<path d="M256,0C114.842,0,0,114.842,0,256s114.842,256,256,256s256-114.842,256-256S397.158,0,256,0z M256,49.548
			c105.454,0,192.682,79.479,204.96,181.677H326.061c-10.227-28.836-37.764-49.548-70.061-49.548s-59.835,20.713-70.061,49.548
			H51.04C63.318,129.027,150.546,49.548,256,49.548z M231.226,460.96C137.152,449.658,62.342,374.848,51.04,280.774h134.899
			c7.477,21.081,24.206,37.81,45.287,45.287V460.96z M256,280.774c-13.66,0-24.774-11.114-24.774-24.774S242.34,231.226,256,231.226
			S280.774,242.34,280.774,256S269.66,280.774,256,280.774z M280.774,460.96V326.061c21.081-7.477,37.81-24.206,45.287-45.287
			H460.96C449.658,374.848,374.848,449.658,280.774,460.96z"/>
	</g>
</g>
<g>
</g>
<g>
</g>
<g>
</g>
<g>
</g>
<g>
</g>
<g>
</g>
<g>
</g>
<g>
</g>
<g>
</g>
<g>
</g>
<g>
</g>
<g>
</g>
<g>
</g>
<g>
</g>
<g>
</g>
</svg>
