<?xml version="1.0" encoding="iso-8859-1"?>
<!-- Generator: Adobe Illustrator 19.0.0, SVG Export Plug-In . SVG Version: 6.00 Build 0)  -->
<svg version="1.1" id="Layer_1" xmlns="http://www.w3.org/2000/svg" xmlns:xlink="http://www.w3.org/1999/xlink" x="0px" y="0px"
	 viewBox="0 0 512 512" style="enable-background:new 0 0 512 512;" xml:space="preserve">
<g>
	<g>
		<path d="M256,0c-47.053,0-85.333,38.281-85.333,85.333v157.539c0,47.053,38.281,85.333,85.333,85.333s85.333-38.281,85.333-85.333
			V85.333C341.333,38.281,303.053,0,256,0z M301.949,242.872c0,25.336-20.613,45.949-45.949,45.949s-45.949-20.613-45.949-45.949
			v-59.077h91.897V242.872z M301.949,144.41h-91.897V85.333c0-25.336,20.613-45.949,45.949-45.949s45.949,20.613,45.949,45.949
			V144.41z"/>
	</g>
</g>
<g>
	<g>
		<path d="M406.974,242.872H367.59c0,61.531-50.059,111.59-111.59,111.59s-111.59-50.059-111.59-111.59h-39.385
			c0,76.574,57.306,140.011,131.282,149.69v80.053h-45.949V512h131.282v-39.385h-45.949v-80.053
			C349.668,382.883,406.974,319.446,406.974,242.872z"/>
	</g>
</g>
<g>
</g>
<g>
</g>
<g>
</g>
<g>
</g>
<g>
</g>
<g>
</g>
<g>
</g>
<g>
</g>
<g>
</g>
<g>
</g>
<g>
</g>
<g>
</g>
<g>
</g>
<g>
</g>
<g>
</g>
</svg>
