<?xml version="1.0" encoding="iso-8859-1"?>
<!-- Generator: Adobe Illustrator 19.0.0, SVG Export Plug-In . SVG Version: 6.00 Build 0)  -->
<svg version="1.1" id="Layer_1" xmlns="http://www.w3.org/2000/svg" xmlns:xlink="http://www.w3.org/1999/xlink" x="0px" y="0px"
	 viewBox="0 0 512 512" style="enable-background:new 0 0 512 512;" xml:space="preserve">
<g>
	<g>
		<path d="M364.911,219.952c24.092-25.076,64.509-77.34,64.509-145.629V49.548h41.29V0H41.29v49.548h41.29v24.774
			c0,68.289,40.417,120.553,64.509,145.629c13.58,14.135,28.219,26.345,42.838,36.048c-14.618,9.703-29.26,21.915-42.838,36.048
			c-24.092,25.076-64.509,77.34-64.509,145.629v24.774H41.29V512H470.71v-49.548h-41.29v-24.774
			c0-68.289-40.417-120.553-64.509-145.629c-13.58-14.135-28.219-26.345-42.838-36.048
			C336.691,246.297,351.331,234.085,364.911,219.952z M329.18,326.377c18.931,19.704,50.691,60.366,50.691,111.301v24.774H132.129
			v-24.774c0-50.934,31.759-91.597,50.691-111.301c30.22-31.455,60.986-45.603,73.18-45.603
			C268.194,280.774,298.96,294.922,329.18,326.377z M256,231.226c-12.194,0-42.96-14.148-73.18-45.603
			c-18.932-19.704-50.691-60.366-50.691-111.301V49.548h247.742v24.774c0,50.934-31.76,91.597-50.691,111.301
			C298.96,217.078,268.194,231.226,256,231.226z"/>
	</g>
</g>
<g>
</g>
<g>
</g>
<g>
</g>
<g>
</g>
<g>
</g>
<g>
</g>
<g>
</g>
<g>
</g>
<g>
</g>
<g>
</g>
<g>
</g>
<g>
</g>
<g>
</g>
<g>
</g>
<g>
</g>
</svg>
