<?xml version="1.0" encoding="iso-8859-1"?>
<!-- Generator: Adobe Illustrator 19.0.0, SVG Export Plug-In . SVG Version: 6.00 Build 0)  -->
<svg version="1.1" id="Layer_1" xmlns="http://www.w3.org/2000/svg" xmlns:xlink="http://www.w3.org/1999/xlink" x="0px" y="0px"
	 viewBox="0 0 512 512" style="enable-background:new 0 0 512 512;" xml:space="preserve">
<g>
	<g>
		<path d="M477.576,229.429l0.043-0.043L345.664,96.226c-9.134-9.219-21.312-14.313-34.29-14.342c-0.039,0-0.076,0-0.115,0
			c-12.934,0-25.094,5.036-34.245,14.187l-16.12,16.122c-1.763,1.763-3.823,2.026-4.893,2.026s-3.13-0.263-4.892-2.026
			L234.987,96.07c-9.151-9.15-21.309-14.185-34.243-14.185c-0.039,0-0.078,0-0.115,0c-12.979,0.029-25.157,5.123-34.29,14.342
			L34.384,229.386l0.043,0.043C13.165,250.722,0,280.098,0,312.494c0,64.857,52.765,117.622,117.622,117.622
			c45.947,0,85.799-26.497,105.147-64.999c9.624,6.1,21.018,9.648,33.232,9.648c12.213,0,23.607-3.548,33.232-9.648
			c19.348,38.502,59.2,64.999,105.147,64.999C459.235,430.115,512,377.35,512,312.494C512,280.098,498.835,250.722,477.576,229.429z
			 M117.622,388.602c-41.966,0-76.108-34.142-76.108-76.108s34.142-76.108,76.108-76.108s76.108,34.142,76.108,76.108
			S159.588,388.602,117.622,388.602z M256,333.25c-11.445,0-20.757-9.311-20.757-20.757c0-11.445,9.312-20.757,20.757-20.757
			s20.757,9.311,20.757,20.757C276.757,323.939,267.445,333.25,256,333.25z M289.232,259.871c-9.624-6.1-21.018-9.648-33.232-9.648
			c-12.213,0-23.607,3.548-33.232,9.648c-18.068-35.955-54.023-61.405-96.12-64.619l69.175-69.806
			c1.762-1.777,3.826-2.047,4.899-2.048c0.006,0,0.011,0,0.011,0c1.082,0,3.138,0.266,4.897,2.026l16.122,16.124
			c18.883,18.884,49.61,18.884,68.496-0.001l16.12-16.121c1.762-1.76,3.816-2.027,4.894-2.027c0,0,0.01,0,0.015,0
			c1.072,0.003,3.138,0.273,4.899,2.048l69.175,69.806C343.254,198.466,307.3,223.916,289.232,259.871z M394.378,388.602
			c-41.966,0-76.108-34.142-76.108-76.108s34.142-76.108,76.108-76.108c41.966,0,76.108,34.142,76.108,76.108
			S436.344,388.602,394.378,388.602z"/>
	</g>
</g>
<g>
</g>
<g>
</g>
<g>
</g>
<g>
</g>
<g>
</g>
<g>
</g>
<g>
</g>
<g>
</g>
<g>
</g>
<g>
</g>
<g>
</g>
<g>
</g>
<g>
</g>
<g>
</g>
<g>
</g>
</svg>
