<?xml version="1.0" encoding="iso-8859-1"?>
<!-- Generator: Adobe Illustrator 19.0.0, SVG Export Plug-In . SVG Version: 6.00 Build 0)  -->
<svg version="1.1" id="Layer_1" xmlns="http://www.w3.org/2000/svg" xmlns:xlink="http://www.w3.org/1999/xlink" x="0px" y="0px"
	 viewBox="0 0 512 512" style="enable-background:new 0 0 512 512;" xml:space="preserve">
<g>
	<g>
		<path d="M385.963,187.077h-110.27V75.488h-39.385v111.589h-110.27c-68.99,0-125.528,55.526-126.034,123.776
			c-0.248,33.499,12.608,65.036,36.198,88.802c23.594,23.767,55.028,36.857,88.517,36.857c35.17,0,69.309-16.098,96.127-45.326
			c14.501-15.804,26-23.488,35.155-23.488c9.154,0,20.653,7.683,35.155,23.486c26.818,29.23,60.957,45.328,96.127,45.328
			c33.489,0,64.923-13.09,88.517-36.857c23.591-23.766,36.446-55.302,36.198-88.803C511.49,242.603,454.952,187.077,385.963,187.077
			z M447.845,371.909c-16.142,16.263-37.652,25.219-60.564,25.219c-30.766,0-53.474-17.711-67.106-32.57
			c-14.277-15.56-36.461-36.244-64.176-36.244S206.1,349,191.823,364.56c-13.632,14.857-36.34,32.568-67.106,32.568
			c-22.913,0-44.422-8.956-60.564-25.219c-16.141-16.261-24.937-37.841-24.766-60.764c0.347-46.694,39.216-84.683,86.65-84.683
			h259.925c47.433,0,86.303,37.989,86.65,84.682C472.783,334.068,463.986,355.647,447.845,371.909z"/>
	</g>
</g>
<g>
	<g>
		<path d="M124.719,285.539c-14.478,0-26.256,11.779-26.256,26.256c0,14.478,11.779,26.256,26.256,26.256
			s26.256-11.779,26.256-26.256C150.975,297.317,139.196,285.539,124.719,285.539z"/>
	</g>
</g>
<g>
	<g>
		<path d="M387.282,285.539c-14.478,0-26.256,11.779-26.256,26.256c0,14.478,11.779,26.256,26.256,26.256
			s26.256-11.779,26.256-26.256C413.538,297.317,401.76,285.539,387.282,285.539z"/>
	</g>
</g>
<g>
	<g>
		<rect x="229.743" y="252.717" width="52.513" height="39.385"/>
	</g>
</g>
<g>
</g>
<g>
</g>
<g>
</g>
<g>
</g>
<g>
</g>
<g>
</g>
<g>
</g>
<g>
</g>
<g>
</g>
<g>
</g>
<g>
</g>
<g>
</g>
<g>
</g>
<g>
</g>
<g>
</g>
</svg>
