<?xml version="1.0" encoding="iso-8859-1"?>
<!-- Generator: Adobe Illustrator 19.0.0, SVG Export Plug-In . SVG Version: 6.00 Build 0)  -->
<svg version="1.1" id="Layer_1" xmlns="http://www.w3.org/2000/svg" xmlns:xlink="http://www.w3.org/1999/xlink" x="0px" y="0px"
	 viewBox="0 0 512 512" style="enable-background:new 0 0 512 512;" xml:space="preserve">
<g>
	<g>
		<path d="M0,19.643v363.355h146.642L256,492.357l109.358-109.358H512V19.643H0z M462.452,333.448H344.835L256,422.284
			l-88.835-88.835H49.548V69.19h412.903V333.448z"/>
	</g>
</g>
<g>
	<g>
		<path d="M198.194,118.739c-18.214,0-33.032,14.818-33.032,33.032s14.818,33.032,33.032,33.032s33.032-14.818,33.032-33.032
			S216.408,118.739,198.194,118.739z"/>
	</g>
</g>
<g>
	<g>
		<path d="M198.194,234.351c-18.214,0-33.032,14.818-33.032,33.032s14.818,33.032,33.032,33.032s33.032-14.817,33.032-33.032
			C231.226,249.17,216.408,234.351,198.194,234.351z"/>
	</g>
</g>
<g>
	<g>
		<path d="M304.292,86.874l-38.894,30.7c20.865,26.432,31.893,58.247,31.893,92.005c0,33.756-11.029,65.571-31.893,92.005
			l38.894,30.697c27.835-35.265,42.547-77.695,42.547-122.703C346.839,164.569,332.126,122.139,304.292,86.874z"/>
	</g>
</g>
<g>
</g>
<g>
</g>
<g>
</g>
<g>
</g>
<g>
</g>
<g>
</g>
<g>
</g>
<g>
</g>
<g>
</g>
<g>
</g>
<g>
</g>
<g>
</g>
<g>
</g>
<g>
</g>
<g>
</g>
</svg>
