<?xml version="1.0" encoding="iso-8859-1"?>
<!-- Generator: Adobe Illustrator 19.0.0, SVG Export Plug-In . SVG Version: 6.00 Build 0)  -->
<svg version="1.1" id="Layer_1" xmlns="http://www.w3.org/2000/svg" xmlns:xlink="http://www.w3.org/1999/xlink" x="0px" y="0px"
	 viewBox="0 0 512 512" style="enable-background:new 0 0 512 512;" xml:space="preserve">
<g>
	<g>
		<path d="M488.727,201.697H512V62.061H0v139.636h23.273c29.943,0,54.303,24.36,54.303,54.303s-24.36,54.303-54.303,54.303H0
			v139.636h512V310.303h-23.273c-29.943,0-54.303-24.36-54.303-54.303S458.785,201.697,488.727,201.697z M465.455,354.138v49.256
			H341.333v-31.03h-46.545v31.03H46.545v-49.256c44.428-10.533,77.576-50.537,77.576-98.138c0-47.6-33.148-87.606-77.576-98.138
			v-49.256h248.242v31.03h46.545v-31.03h124.121v49.256C421.027,168.395,387.879,208.4,387.879,256S421.027,343.606,465.455,354.138
			z"/>
	</g>
</g>
<g>
	<g>
		<rect x="294.788" y="279.273" width="46.545" height="46.545"/>
	</g>
</g>
<g>
	<g>
		<rect x="294.788" y="186.182" width="46.545" height="46.545"/>
	</g>
</g>
<g>
</g>
<g>
</g>
<g>
</g>
<g>
</g>
<g>
</g>
<g>
</g>
<g>
</g>
<g>
</g>
<g>
</g>
<g>
</g>
<g>
</g>
<g>
</g>
<g>
</g>
<g>
</g>
<g>
</g>
</svg>
