<?xml version="1.0" encoding="iso-8859-1"?>
<!-- Generator: Adobe Illustrator 19.0.0, SVG Export Plug-In . SVG Version: 6.00 Build 0)  -->
<svg version="1.1" id="Layer_1" xmlns="http://www.w3.org/2000/svg" xmlns:xlink="http://www.w3.org/1999/xlink" x="0px" y="0px"
	 viewBox="0 0 512 512" style="enable-background:new 0 0 512 512;" xml:space="preserve">
<g>
	<g>
		<path d="M394.031,124.121c5.97-11.647,9.363-24.824,9.363-38.788C403.394,38.281,365.113,0,318.061,0
			C293.624,0,271.571,10.341,256,26.857C240.429,10.341,218.376,0,193.939,0c-47.053,0-85.333,38.281-85.333,85.333
			c0,13.964,3.393,27.141,9.363,38.788H0v139.636h46.545V512h418.909V263.758H512V124.121H394.031z M232.727,465.455H93.091v-77.576
			h139.636V465.455z M232.727,341.333H93.091v-77.576h139.636V341.333z M232.727,217.212H46.545v-46.545h186.182V217.212z
			 M232.727,124.121h-38.788c-21.388,0-38.788-17.4-38.788-38.788s17.4-38.788,38.788-38.788s38.788,17.4,38.788,38.788V124.121z
			 M279.273,85.333c0-21.388,17.4-38.788,38.788-38.788s38.788,17.4,38.788,38.788s-17.4,38.788-38.788,38.788h-38.788V85.333z
			 M418.909,465.455H279.273v-77.576h139.636V465.455z M418.909,341.333H279.273v-77.576h139.636V341.333z M465.455,217.212H279.273
			v-46.545h186.182V217.212z"/>
	</g>
</g>
<g>
</g>
<g>
</g>
<g>
</g>
<g>
</g>
<g>
</g>
<g>
</g>
<g>
</g>
<g>
</g>
<g>
</g>
<g>
</g>
<g>
</g>
<g>
</g>
<g>
</g>
<g>
</g>
<g>
</g>
</svg>
