<?xml version="1.0" encoding="iso-8859-1"?>
<!-- Generator: Adobe Illustrator 19.0.0, SVG Export Plug-In . SVG Version: 6.00 Build 0)  -->
<svg version="1.1" id="Layer_1" xmlns="http://www.w3.org/2000/svg" xmlns:xlink="http://www.w3.org/1999/xlink" x="0px" y="0px"
	 viewBox="0 0 512 512" style="enable-background:new 0 0 512 512;" xml:space="preserve">
<g>
	<g>
		<path d="M290.983,171.789c-3.549-6.12-8.653-11.224-14.773-14.773V57.263h-40.421v99.754c-6.12,3.549-11.224,8.653-14.773,14.773
			H0v40.421h33.684v181.895c0,33.432,27.199,60.632,60.632,60.632h323.368c33.432,0,60.632-27.199,60.632-60.632V212.211H512
			v-40.421H290.983z M437.895,394.105c0,11.144-9.066,20.211-20.211,20.211H94.316c-11.144,0-20.211-9.066-20.211-20.211V212.211
			h146.912c7,12.07,20.054,20.211,34.983,20.211c14.929,0,27.983-8.141,34.983-20.211h146.912V394.105z"/>
	</g>
</g>
<g>
	<g>
		<rect x="168.421" y="266.105" width="40.421" height="107.789"/>
	</g>
</g>
<g>
	<g>
		<rect x="303.158" y="266.105" width="40.421" height="107.789"/>
	</g>
</g>
<g>
</g>
<g>
</g>
<g>
</g>
<g>
</g>
<g>
</g>
<g>
</g>
<g>
</g>
<g>
</g>
<g>
</g>
<g>
</g>
<g>
</g>
<g>
</g>
<g>
</g>
<g>
</g>
<g>
</g>
</svg>
