<?xml version="1.0" encoding="iso-8859-1"?>
<!-- Generator: Adobe Illustrator 19.0.0, SVG Export Plug-In . SVG Version: 6.00 Build 0)  -->
<svg version="1.1" id="Layer_1" xmlns="http://www.w3.org/2000/svg" xmlns:xlink="http://www.w3.org/1999/xlink" x="0px" y="0px"
	 viewBox="0 0 512 512" style="enable-background:new 0 0 512 512;" xml:space="preserve">
<g>
	<g>
		<path d="M221.464,110.703h20.757V0h-20.757c-64.857,0-117.622,52.765-117.622,117.622v276.757
			c0,64.857,52.765,117.622,117.622,117.622h20.757V401.297h-20.757c-34.336,0-62.27-27.934-62.27-62.27V172.973
			C159.194,138.637,187.128,110.703,221.464,110.703z"/>
	</g>
</g>
<g>
	<g>
		<path d="M261.935,153.26l-29.354,29.354c40.465,40.466,40.465,106.308,0,146.772l29.354,29.354
			C318.586,302.09,318.586,209.91,261.935,153.26z"/>
	</g>
</g>
<g>
	<g>
		<path d="M335.32,79.873l-29.354,29.354c39.204,39.204,60.795,91.328,60.795,146.772s-21.591,107.568-60.795,146.772l29.354,29.354
			C432.437,335.01,432.437,176.99,335.32,79.873z"/>
	</g>
</g>
<g>
</g>
<g>
</g>
<g>
</g>
<g>
</g>
<g>
</g>
<g>
</g>
<g>
</g>
<g>
</g>
<g>
</g>
<g>
</g>
<g>
</g>
<g>
</g>
<g>
</g>
<g>
</g>
<g>
</g>
</svg>
