<?xml version="1.0" encoding="iso-8859-1"?>
<!-- Generator: Adobe Illustrator 19.0.0, SVG Export Plug-In . SVG Version: 6.00 Build 0)  -->
<svg version="1.1" id="Layer_1" xmlns="http://www.w3.org/2000/svg" xmlns:xlink="http://www.w3.org/1999/xlink" x="0px" y="0px"
	 viewBox="0 0 512 512" style="enable-background:new 0 0 512 512;" xml:space="preserve">
<g>
	<g>
		<path d="M473.308,109.627c0,39.113-31.821,70.935-70.935,70.935s-70.935-31.821-70.935-70.935s31.821-70.935,70.935-70.935V0
			c-60.448,0-109.627,49.178-109.627,109.627c0,8.498,1.003,16.76,2.843,24.707L134.334,295.589
			c-7.947-1.839-16.209-2.843-24.707-2.843C49.178,292.747,0,341.925,0,402.373h38.692c0-39.113,31.821-70.935,70.935-70.935
			s70.935,31.821,70.935,70.935s-31.821,70.935-70.935,70.935V512c60.448,0,109.627-49.179,109.627-109.627
			c0-8.498-1.003-16.76-2.843-24.707l161.256-161.256c7.947,1.838,16.211,2.843,24.707,2.843
			c60.448,0,109.627-49.178,109.627-109.627H473.308z M199.562,339.797c-7.435-10.653-16.706-19.925-27.359-27.359l140.236-140.236
			c7.435,10.653,16.706,19.924,27.359,27.359L199.562,339.797z"/>
	</g>
</g>
<g>
</g>
<g>
</g>
<g>
</g>
<g>
</g>
<g>
</g>
<g>
</g>
<g>
</g>
<g>
</g>
<g>
</g>
<g>
</g>
<g>
</g>
<g>
</g>
<g>
</g>
<g>
</g>
<g>
</g>
</svg>
