<?xml version="1.0" encoding="iso-8859-1"?>
<!-- Generator: Adobe Illustrator 19.0.0, SVG Export Plug-In . SVG Version: 6.00 Build 0)  -->
<svg version="1.1" id="Layer_1" xmlns="http://www.w3.org/2000/svg" xmlns:xlink="http://www.w3.org/1999/xlink" x="0px" y="0px"
	 viewBox="0 0 512 512" style="enable-background:new 0 0 512 512;" xml:space="preserve">
<g>
	<g>
		<path d="M256,0C114.842,0,0,114.842,0,256s114.842,256,256,256s256-114.842,256-256S397.158,0,256,0z M231.226,51.04v180.186
			H51.04C62.342,137.152,137.152,62.342,231.226,51.04z M256,462.452c-105.454,0-192.682-79.479-204.96-181.677h194.699
			l137.612,137.612C348.246,445.978,304.011,462.452,256,462.452z M418.387,383.351L280.774,245.739V51.04
			C382.973,63.318,462.452,150.546,462.452,256C462.452,304.011,445.978,348.246,418.387,383.351z"/>
	</g>
</g>
<g>
</g>
<g>
</g>
<g>
</g>
<g>
</g>
<g>
</g>
<g>
</g>
<g>
</g>
<g>
</g>
<g>
</g>
<g>
</g>
<g>
</g>
<g>
</g>
<g>
</g>
<g>
</g>
<g>
</g>
</svg>
