<?xml version="1.0" encoding="iso-8859-1"?>
<!-- Generator: Adobe Illustrator 19.0.0, SVG Export Plug-In . SVG Version: 6.00 Build 0)  -->
<svg version="1.1" id="Layer_1" xmlns="http://www.w3.org/2000/svg" xmlns:xlink="http://www.w3.org/1999/xlink" x="0px" y="0px"
	 viewBox="0 0 512 512" style="enable-background:new 0 0 512 512;" xml:space="preserve">
<g>
	<g>
		<path d="M424.35,255.812c43.61-41.657,75.487-89.474,53.352-127.812c-22.326-38.67-79.627-34.98-137.429-17.967
			C326.108,51.468,300.651,0,256,0c-44.269,0-69.742,51.515-84.013,110.111C114.097,93.032,56.656,89.273,34.297,128
			c-22.134,38.338,9.742,86.156,53.352,127.812C43.914,297.407,11.939,345.273,34.297,384
			c22.168,38.395,79.656,34.63,137.626,17.625C186.181,460.33,211.664,512,256,512c44.719,0,70.184-51.624,84.337-110.297
			c57.881,16.939,115.231,20.635,137.365-17.703C500.062,345.273,468.086,297.407,424.35,255.812z M74.607,360.727
			c-6.927-11.999,13.262-41.326,48.454-74.139c11.784,9.413,23.617,18.181,34.833,26.055c1.209,13.638,2.884,28.256,5.142,43.154
			C116.52,369.908,81.279,372.283,74.607,360.727z M157.904,199.249c-11.25,7.86-23.122,16.614-34.945,26.016
			c-35.396-33.178-55.015-62.45-48.351-73.992c6.927-11.999,42.422-9.177,88.433,4.893
			C160.786,171.037,159.112,185.631,157.904,199.249z M256,46.545c13.838,0,29.12,32.068,39.938,78.854
			c-14.029,5.526-27.524,11.419-39.938,17.222c-12.404-5.798-25.885-11.686-39.902-17.208C227.131,78.173,242.672,46.545,256,46.545
			z M256,465.455c-13.343,0-28.908-31.708-39.944-79.047c14.03-5.495,27.527-11.352,39.944-17.124
			c12.426,5.776,25.935,11.639,39.979,17.138C285.159,433.306,269.855,465.455,256,465.455z M309.488,286.902
			c-8.529,5.525-44.434,26.255-53.488,30.883c-9.055-4.628-44.971-25.364-53.507-30.892c-0.52-10.156-0.52-51.616-0.002-61.766
			c8.578-5.562,44.406-26.249,53.507-30.894c9.101,4.644,44.919,25.324,53.492,30.883
			C310.017,235.32,310.017,276.691,309.488,286.902z M437.394,151.273c6.664,11.542-12.957,40.814-48.351,73.99
			c-11.792-9.377-23.631-18.109-34.855-25.952c-1.182-13.652-2.827-28.286-5.053-43.199
			C395.062,142.088,430.474,139.289,437.394,151.273z M437.394,360.727c-6.664,11.542-41.824,9.187-88.253-4.878
			c2.231-14.941,3.876-29.598,5.058-43.272c11.188-7.857,22.989-16.603,34.742-25.991
			C424.131,319.401,444.321,348.728,437.394,360.727z"/>
	</g>
</g>
<g>
</g>
<g>
</g>
<g>
</g>
<g>
</g>
<g>
</g>
<g>
</g>
<g>
</g>
<g>
</g>
<g>
</g>
<g>
</g>
<g>
</g>
<g>
</g>
<g>
</g>
<g>
</g>
<g>
</g>
</svg>
