<?xml version="1.0" encoding="iso-8859-1"?>
<!-- Generator: Adobe Illustrator 19.0.0, SVG Export Plug-In . SVG Version: 6.00 Build 0)  -->
<svg version="1.1" id="Layer_1" xmlns="http://www.w3.org/2000/svg" xmlns:xlink="http://www.w3.org/1999/xlink" x="0px" y="0px"
	 viewBox="0 0 512.002 512.002" style="enable-background:new 0 0 512.002 512.002;" xml:space="preserve">
<g>
	<g>
		<path d="M468.056,124.509v-0.001c0,44.423-36.141,80.564-80.564,80.564c-44.423,0-80.564-36.141-80.564-80.564
			s36.141-80.564,80.564-80.564V0c-68.654,0-124.508,55.854-124.508,124.508c0,9.652,1.14,19.035,3.228,28.061L18.754,400.028
			l0.003,0.003c-25.181,25.742-25.007,67.168,0.518,92.695c12.849,12.851,29.729,19.275,46.608,19.275
			c16.65,0,33.302-6.252,46.085-18.757l0.003,0.003l0.457-0.456c0.022-0.022,0.044-0.044,0.066-0.066l246.938-246.938
			c9.026,2.089,18.41,3.228,28.061,3.228c68.653,0,124.508-55.854,124.508-124.508H468.056z M81.419,461.652
			c-4.148,4.15-9.666,6.435-15.534,6.435s-11.386-2.285-15.536-6.435c-8.568-8.566-8.568-22.507,0-31.073l235.001-235.001
			c8.445,12.099,18.974,22.628,31.073,31.073L81.419,461.652z"/>
	</g>
</g>
<g>
</g>
<g>
</g>
<g>
</g>
<g>
</g>
<g>
</g>
<g>
</g>
<g>
</g>
<g>
</g>
<g>
</g>
<g>
</g>
<g>
</g>
<g>
</g>
<g>
</g>
<g>
</g>
<g>
</g>
</svg>
