<?xml version="1.0" encoding="iso-8859-1"?>
<!-- Generator: Adobe Illustrator 19.0.0, SVG Export Plug-In . SVG Version: 6.00 Build 0)  -->
<svg version="1.1" id="Layer_1" xmlns="http://www.w3.org/2000/svg" xmlns:xlink="http://www.w3.org/1999/xlink" x="0px" y="0px"
	 viewBox="0 0 512 512" style="enable-background:new 0 0 512 512;" xml:space="preserve">
<g>
	<g>
		<path d="M383.999,128.001c-34.19-34.19-79.647-53.02-127.999-53.02s-93.81,18.829-127.999,53.018L0,256l128.001,127.999
			c34.19,34.19,79.647,53.02,127.999,53.02s93.81-18.83,127.999-53.02L512,256L383.999,128.001z M355.555,355.555
			c-26.592,26.592-61.947,41.238-99.555,41.238s-72.963-14.645-99.555-41.238L56.888,256l99.557-99.555
			c26.592-26.592,61.947-41.237,99.555-41.237s72.963,14.645,99.555,41.237L455.112,256L355.555,355.555z"/>
	</g>
</g>
<g>
	<g>
		<path d="M308.147,203.852c-28.757-28.755-75.544-28.754-104.295,0c-13.929,13.929-21.6,32.449-21.6,52.148
			s7.67,38.219,21.6,52.148c14.377,14.377,33.263,21.565,52.148,21.565s37.771-7.188,52.147-21.565
			c13.929-13.929,21.6-32.449,21.6-52.148S322.077,217.781,308.147,203.852z M279.703,279.705c-13.071,13.07-34.336,13.07-47.407,0
			c-6.33-6.332-9.818-14.75-9.818-23.704s3.486-17.372,9.818-23.704c6.535-6.536,15.12-9.803,23.704-9.803
			c8.584,0,17.169,3.268,23.703,9.803c6.33,6.332,9.818,14.75,9.818,23.704S286.034,273.374,279.703,279.705z"/>
	</g>
</g>
<g>
</g>
<g>
</g>
<g>
</g>
<g>
</g>
<g>
</g>
<g>
</g>
<g>
</g>
<g>
</g>
<g>
</g>
<g>
</g>
<g>
</g>
<g>
</g>
<g>
</g>
<g>
</g>
<g>
</g>
</svg>
