<?xml version="1.0" encoding="iso-8859-1"?>
<!-- Generator: Adobe Illustrator 19.0.0, SVG Export Plug-In . SVG Version: 6.00 Build 0)  -->
<svg version="1.1" id="Layer_1" xmlns="http://www.w3.org/2000/svg" xmlns:xlink="http://www.w3.org/1999/xlink" x="0px" y="0px"
	 viewBox="0 0 512 512" style="enable-background:new 0 0 512 512;" xml:space="preserve">
<g>
	<g>
		<path d="M256,0C114.84,0,0,114.842,0,256s114.84,256,256,256s256-114.842,256-256S397.16,0,256,0z M280.774,51.04
			c72.133,8.666,132.935,54.67,162.474,118.07l-98.309,31.944l-64.165-46.62V51.04z M231.226,51.04v103.394l-64.164,46.618
			l-98.309-31.944C98.291,105.71,159.093,59.706,231.226,51.04z M49.548,256c0-13.604,1.336-26.901,3.86-39.776l98.34,31.954
			l24.508,75.429l-60.708,83.558C74.977,369.441,49.548,315.638,49.548,256z M256,462.452c-36.421,0-70.661-9.493-100.4-26.114
			l60.743-83.608h79.312l60.743,83.608C326.661,452.958,292.421,462.452,256,462.452z M396.45,407.164l-60.708-83.558l24.508-75.429
			l98.34-31.954c2.525,12.876,3.862,26.173,3.862,39.777C462.452,315.638,437.022,369.441,396.45,407.164z"/>
	</g>
</g>
<g>
</g>
<g>
</g>
<g>
</g>
<g>
</g>
<g>
</g>
<g>
</g>
<g>
</g>
<g>
</g>
<g>
</g>
<g>
</g>
<g>
</g>
<g>
</g>
<g>
</g>
<g>
</g>
<g>
</g>
</svg>
