<?xml version="1.0" encoding="iso-8859-1"?>
<!-- Generator: Adobe Illustrator 19.0.0, SVG Export Plug-In . SVG Version: 6.00 Build 0)  -->
<svg version="1.1" id="Layer_1" xmlns="http://www.w3.org/2000/svg" xmlns:xlink="http://www.w3.org/1999/xlink" x="0px" y="0px"
	 viewBox="0 0 512 512" style="enable-background:new 0 0 512 512;" xml:space="preserve">
<g>
	<g>
		<path d="M272.516,165.161h222.968V0H272.516c-141.158,0-256,114.842-256,256s114.842,256,256,256h222.968V346.839H272.516
			c-50.088,0-90.839-40.75-90.839-90.839S222.428,165.161,272.516,165.161z M379.871,49.548h66.065v66.065h-66.065V49.548z
			 M379.871,396.387h66.065v66.065h-66.065V396.387z M272.516,396.387h57.806v66.065h-57.806
			c-113.837,0-206.452-92.614-206.452-206.452S158.679,49.548,272.516,49.548h57.806v66.065h-57.806
			c-77.409,0-140.387,62.978-140.387,140.387S195.107,396.387,272.516,396.387z"/>
	</g>
</g>
<g>
</g>
<g>
</g>
<g>
</g>
<g>
</g>
<g>
</g>
<g>
</g>
<g>
</g>
<g>
</g>
<g>
</g>
<g>
</g>
<g>
</g>
<g>
</g>
<g>
</g>
<g>
</g>
<g>
</g>
</svg>
