<?xml version="1.0" encoding="iso-8859-1"?>
<!-- Generator: Adobe Illustrator 19.0.0, SVG Export Plug-In . SVG Version: 6.00 Build 0)  -->
<svg version="1.1" id="Layer_1" xmlns="http://www.w3.org/2000/svg" xmlns:xlink="http://www.w3.org/1999/xlink" x="0px" y="0px"
	 viewBox="0 0 512 512" style="enable-background:new 0 0 512 512;" xml:space="preserve">
<g>
	<g>
		<path d="M439.794,183.795h-36.457C376.577,129.414,320.592,91.897,256,91.897s-120.577,37.516-147.337,91.897h-36.46
			C32.39,183.796,0,216.186,0,256s32.391,72.205,72.205,72.205h36.458c26.759,54.381,82.746,91.897,147.337,91.897
			s120.577-37.516,147.337-91.897h36.458C479.609,328.205,512,295.814,512,256S479.609,183.795,439.794,183.795z M95.197,288.82
			H72.205c-18.097,0-32.82-14.723-32.82-32.821s14.723-32.819,32.82-32.82h22.993c-2.162,10.608-3.3,21.584-3.3,32.82
			C91.897,267.236,93.036,278.213,95.197,288.82z M256,380.718c-41.882,0-79.008-20.752-101.637-52.513h203.275
			C335.008,359.966,297.882,380.718,256,380.718z M376.327,288.82H135.673c-2.857-10.462-4.391-21.465-4.391-32.821
			c0-68.769,55.948-124.718,124.718-124.718S380.718,187.231,380.718,256C380.718,267.356,379.183,278.359,376.327,288.82z
			 M439.795,288.82h-22.991c2.162-10.608,3.299-21.584,3.299-32.821c0-11.236-1.138-22.213-3.299-32.82h22.991
			c18.097,0,32.821,14.723,32.821,32.82S457.892,288.82,439.795,288.82z"/>
	</g>
</g>
<g>
</g>
<g>
</g>
<g>
</g>
<g>
</g>
<g>
</g>
<g>
</g>
<g>
</g>
<g>
</g>
<g>
</g>
<g>
</g>
<g>
</g>
<g>
</g>
<g>
</g>
<g>
</g>
<g>
</g>
</svg>
