<?xml version="1.0" encoding="iso-8859-1"?>
<!-- Generator: Adobe Illustrator 19.0.0, SVG Export Plug-In . SVG Version: 6.00 Build 0)  -->
<svg version="1.1" id="Layer_1" xmlns="http://www.w3.org/2000/svg" xmlns:xlink="http://www.w3.org/1999/xlink" x="0px" y="0px"
	 viewBox="0 0 512 512" style="enable-background:new 0 0 512 512;" xml:space="preserve">
<g>
	<g>
		<path d="M0,19.643v363.355h146.642L256,492.357l109.358-109.358H512V19.643H0z M462.452,333.448H344.835L256,422.284
			l-88.835-88.835H49.548V69.19h412.903V333.448z"/>
	</g>
</g>
<g>
	<g>
		<path d="M256,168.287c-18.214,0-33.032,14.818-33.032,33.032s14.818,33.032,33.032,33.032s33.032-14.818,33.032-33.032
			S274.214,168.287,256,168.287z"/>
	</g>
</g>
<g>
	<g>
		<path d="M140.387,168.287c-18.214,0-33.032,14.818-33.032,33.032s14.818,33.032,33.032,33.032s33.032-14.818,33.032-33.032
			S158.601,168.287,140.387,168.287z"/>
	</g>
</g>
<g>
	<g>
		<path d="M371.613,168.287c-18.214,0-33.032,14.818-33.032,33.032s14.818,33.032,33.032,33.032s33.032-14.818,33.032-33.032
			S389.827,168.287,371.613,168.287z"/>
	</g>
</g>
<g>
</g>
<g>
</g>
<g>
</g>
<g>
</g>
<g>
</g>
<g>
</g>
<g>
</g>
<g>
</g>
<g>
</g>
<g>
</g>
<g>
</g>
<g>
</g>
<g>
</g>
<g>
</g>
<g>
</g>
</svg>
