<?xml version="1.0" encoding="iso-8859-1"?>
<!-- Generator: Adobe Illustrator 19.0.0, SVG Export Plug-In . SVG Version: 6.00 Build 0)  -->
<svg version="1.1" id="Layer_1" xmlns="http://www.w3.org/2000/svg" xmlns:xlink="http://www.w3.org/1999/xlink" x="0px" y="0px"
	 viewBox="0 0 512 512" style="enable-background:new 0 0 512 512;" xml:space="preserve">
<g>
	<g>
		<path d="M116.364,0C52.201,0,0,52.201,0,116.364v124.121c0,64.163,52.201,116.364,116.364,116.364h85.333v89.249
			c0,36.338,29.564,65.902,65.902,65.902c31.303,0,58.48-22.28,64.621-52.975l20.435-102.177H512V0H116.364z M310.303,331.272
			l-23.724,118.624c-1.804,9.014-9.787,15.559-18.98,15.559c-10.673,0-19.357-8.684-19.357-19.357V310.303H116.364
			c-38.498,0-69.818-31.32-69.818-69.818V116.364c0-38.498,31.32-69.818,69.818-69.818h193.939V331.272z M465.455,310.303H356.849
			V46.545h108.606V310.303z"/>
	</g>
</g>
<g>
</g>
<g>
</g>
<g>
</g>
<g>
</g>
<g>
</g>
<g>
</g>
<g>
</g>
<g>
</g>
<g>
</g>
<g>
</g>
<g>
</g>
<g>
</g>
<g>
</g>
<g>
</g>
<g>
</g>
</svg>
