<?xml version="1.0" encoding="iso-8859-1"?>
<!-- Generator: Adobe Illustrator 19.0.0, SVG Export Plug-In . SVG Version: 6.00 Build 0)  -->
<svg version="1.1" id="Layer_1" xmlns="http://www.w3.org/2000/svg" xmlns:xlink="http://www.w3.org/1999/xlink" x="0px" y="0px"
	 viewBox="0 0 512.001 512.001" style="enable-background:new 0 0 512.001 512.001;" xml:space="preserve">
<g>
	<g>
		<path d="M477.175,78.614v-0.002c-46.434-46.433-121.99-46.434-168.424,0.002L256,131.365L203.25,78.614
			C156.816,32.181,81.26,32.181,34.826,78.615s-46.434,121.989,0,168.423L256,468.213l221.175-221.176
			C523.609,200.603,523.609,125.048,477.175,78.614z M445.714,215.577L256.002,405.291L66.288,215.577
			c-29.085-29.088-29.085-76.416,0-105.503C80.833,95.53,99.932,88.26,119.038,88.26c19.102,0,38.209,7.275,52.751,21.815
			L256,194.288l84.211-84.213c29.088-29.085,76.415-29.085,105.503,0C474.799,139.163,474.799,186.491,445.714,215.577z"/>
	</g>
</g>
<g>
</g>
<g>
</g>
<g>
</g>
<g>
</g>
<g>
</g>
<g>
</g>
<g>
</g>
<g>
</g>
<g>
</g>
<g>
</g>
<g>
</g>
<g>
</g>
<g>
</g>
<g>
</g>
<g>
</g>
</svg>
