<?xml version="1.0" encoding="iso-8859-1"?>
<!-- Generator: Adobe Illustrator 19.0.0, SVG Export Plug-In . SVG Version: 6.00 Build 0)  -->
<svg version="1.1" id="Layer_1" xmlns="http://www.w3.org/2000/svg" xmlns:xlink="http://www.w3.org/1999/xlink" x="0px" y="0px"
	 viewBox="0 0 512 512" style="enable-background:new 0 0 512 512;" xml:space="preserve">
<g>
	<g>
		<rect x="108.606" y="465.455" width="387.879" height="46.545"/>
	</g>
</g>
<g>
	<g>
		<rect x="232.727" width="46.545" height="93.091"/>
	</g>
</g>
<g>
	<g>
		<rect x="325.818" width="46.545" height="93.091"/>
	</g>
</g>
<g>
	<g>
		<path d="M131.879,139.636h-23.273h-7.758c-47.053,0-85.333,38.281-85.333,85.333s38.281,85.333,85.333,85.333h20.765
			c28.089,72.541,98.596,124.121,180.932,124.121c106.938,0,193.939-87.001,193.939-193.939V139.636H131.879z M100.848,263.758
			c-21.388,0-38.788-17.4-38.788-38.788s17.4-38.788,38.788-38.788h7.758v54.303c0,7.875,0.484,15.639,1.401,23.273H100.848z
			 M449.939,240.485c0,81.273-66.121,147.394-147.394,147.394s-147.394-66.121-147.394-147.394v-54.303h294.788V240.485z"/>
	</g>
</g>
<g>
</g>
<g>
</g>
<g>
</g>
<g>
</g>
<g>
</g>
<g>
</g>
<g>
</g>
<g>
</g>
<g>
</g>
<g>
</g>
<g>
</g>
<g>
</g>
<g>
</g>
<g>
</g>
<g>
</g>
</svg>
