<?xml version="1.0" encoding="iso-8859-1"?>
<!-- Generator: Adobe Illustrator 19.0.0, SVG Export Plug-In . SVG Version: 6.00 Build 0)  -->
<svg version="1.1" id="Layer_1" xmlns="http://www.w3.org/2000/svg" xmlns:xlink="http://www.w3.org/1999/xlink" x="0px" y="0px"
	 viewBox="0 0 512 512" style="enable-background:new 0 0 512 512;" xml:space="preserve">
<g>
	<g>
		<rect x="233.075" width="45.851" height="183.403"/>
	</g>
</g>
<g>
	<g>
		<path d="M455.209,146.865c-23.994-37.197-57.767-66.878-97.67-85.836l-19.675,41.415c66.323,31.51,109.18,99.284,109.18,172.66
			c0,105.342-85.703,191.045-191.045,191.045S64.955,380.447,64.955,275.104c0-73.376,42.857-141.15,109.18-172.66L154.46,61.029
			c-39.902,18.958-73.676,48.64-97.67,85.836c-24.655,38.223-37.686,82.568-37.686,128.24C19.104,405.729,125.374,512,256,512
			s236.896-106.271,236.896-236.896C492.896,229.433,479.865,185.087,455.209,146.865z"/>
	</g>
</g>
<g>
</g>
<g>
</g>
<g>
</g>
<g>
</g>
<g>
</g>
<g>
</g>
<g>
</g>
<g>
</g>
<g>
</g>
<g>
</g>
<g>
</g>
<g>
</g>
<g>
</g>
<g>
</g>
<g>
</g>
</svg>
