<?xml version="1.0" encoding="iso-8859-1"?>
<!-- Generator: Adobe Illustrator 19.0.0, SVG Export Plug-In . SVG Version: 6.00 Build 0)  -->
<svg version="1.1" id="Layer_1" xmlns="http://www.w3.org/2000/svg" xmlns:xlink="http://www.w3.org/1999/xlink" x="0px" y="0px"
	 viewBox="0 0 512 512" style="enable-background:new 0 0 512 512;" xml:space="preserve">
<g>
	<g>
		<path d="M481.882,67.765c-16.607,0-30.118,13.511-30.118,30.118c0,5.911,1.736,11.415,4.691,16.071l-95.044,95.044l-87.191-87.191
			c7.213-5.509,11.896-14.169,11.896-23.924c0-16.607-13.511-30.118-30.118-30.118s-30.118,13.511-30.118,30.118
			c0,9.755,4.682,18.415,11.896,23.924l-87.191,87.191l-95.044-95.044c2.955-4.656,4.691-10.16,4.691-16.071
			c0-16.607-13.511-30.118-30.118-30.118S0,81.276,0,97.882c0,7.609,2.858,14.547,7.529,19.855v326.498h496.941V117.737
			c4.671-5.308,7.529-12.246,7.529-19.855C512,81.276,498.489,67.765,481.882,67.765z M459.294,399.059H52.706V175.003
			l97.882,97.882L256,167.474l105.412,105.412l97.882-97.882V399.059z"/>
	</g>
</g>
<g>
</g>
<g>
</g>
<g>
</g>
<g>
</g>
<g>
</g>
<g>
</g>
<g>
</g>
<g>
</g>
<g>
</g>
<g>
</g>
<g>
</g>
<g>
</g>
<g>
</g>
<g>
</g>
<g>
</g>
</svg>
