<?xml version="1.0" encoding="iso-8859-1"?>
<!-- Generator: Adobe Illustrator 19.0.0, SVG Export Plug-In . SVG Version: 6.00 Build 0)  -->
<svg version="1.1" id="Layer_1" xmlns="http://www.w3.org/2000/svg" xmlns:xlink="http://www.w3.org/1999/xlink" x="0px" y="0px"
	 viewBox="0 0 512 512" style="enable-background:new 0 0 512 512;" xml:space="preserve">
<g>
	<g>
		<path d="M0,0v512h512V0H0z M462.452,462.452H49.548V49.548h412.903V462.452z"/>
	</g>
</g>
<g>
	<g>
		<path d="M272.516,148.645c-50.088,0-90.839,40.75-90.839,90.839c0,16.06,4.207,31.149,11.55,44.253l-53.841,53.843l35.034,35.034
			l53.843-53.841c13.104,7.343,28.193,11.55,44.253,11.55c50.088,0,90.839-40.75,90.839-90.839
			C363.355,189.395,322.605,148.645,272.516,148.645z M272.516,280.774c-22.767,0-41.29-18.523-41.29-41.29
			c0-22.768,18.523-41.29,41.29-41.29c22.768,0,41.29,18.523,41.29,41.29C313.806,262.251,295.284,280.774,272.516,280.774z"/>
	</g>
</g>
<g>
</g>
<g>
</g>
<g>
</g>
<g>
</g>
<g>
</g>
<g>
</g>
<g>
</g>
<g>
</g>
<g>
</g>
<g>
</g>
<g>
</g>
<g>
</g>
<g>
</g>
<g>
</g>
<g>
</g>
</svg>
