<?xml version="1.0" encoding="iso-8859-1"?>
<!-- Generator: Adobe Illustrator 19.0.0, SVG Export Plug-In . SVG Version: 6.00 Build 0)  -->
<svg version="1.1" id="Layer_1" xmlns="http://www.w3.org/2000/svg" xmlns:xlink="http://www.w3.org/1999/xlink" x="0px" y="0px"
	 viewBox="0 0 512 512" style="enable-background:new 0 0 512 512;" xml:space="preserve">
<g>
	<g>
		<path d="M359.784,103.784v262.919c0,57.226-46.557,103.784-103.784,103.784s-103.784-46.557-103.784-103.784V103.784
			c0-34.336,27.934-62.27,62.27-62.27c34.336,0,62.27,27.934,62.27,62.27v262.919c0,11.445-9.312,20.757-20.757,20.757
			s-20.757-9.311-20.757-20.757V103.784H193.73v262.919c0,34.336,27.934,62.27,62.27,62.27s62.27-27.934,62.27-62.27V103.784
			C318.27,46.557,271.713,0,214.487,0S110.703,46.557,110.703,103.784v262.919C110.703,446.82,175.883,512,256,512
			s145.297-65.18,145.297-145.297V103.784H359.784z"/>
	</g>
</g>
<g>
</g>
<g>
</g>
<g>
</g>
<g>
</g>
<g>
</g>
<g>
</g>
<g>
</g>
<g>
</g>
<g>
</g>
<g>
</g>
<g>
</g>
<g>
</g>
<g>
</g>
<g>
</g>
<g>
</g>
</svg>
